<?xml version="1.0" encoding="utf-8"?>
<!-- Generator: Adobe Illustrator 22.0.0, SVG Export Plug-In . SVG Version: 6.00 Build 0)  -->
<svg class="icon" version="1.1" id="Layer_1" xmlns="http://www.w3.org/2000/svg" xmlns:xlink="http://www.w3.org/1999/xlink" x="0px" y="0px"
	 viewBox="0 0 10 9.8" style="enable-background:new 0 0 10 9.8;" xml:space="preserve">
<title>close</title>
<g>
	<path d="M9.5,9.8c-0.1,0-0.3,0-0.3-0.1l-9-8.8C0,0.7-0.1,0.3,0.1,0.2C0.3,0,0.7,0,0.8,0.1l9,8.8c0.2,0.2,0.2,0.5,0,0.7
		C9.7,9.7,9.6,9.8,9.5,9.8z"/>
</g>
<g>
	<path d="M0.5,9.8c-0.1,0-0.3,0-0.4-0.2c-0.2-0.2-0.2-0.5,0-0.7l9-8.8C9.3,0,9.6,0,9.8,0.2c0.2,0.2,0.2,0.5,0,0.7l-9,8.8
		C0.8,9.7,0.6,9.8,0.5,9.8z"/>
</g>
</svg>
