<svg class="icon" xmlns="http://www.w3.org/2000/svg" viewBox="0 0 518 518">
  <title>surprise</title>
  <circle cx="259" cy="259" r="256" fill="none" stroke="#ffffff" stroke-miterlimit="10" stroke-width="6"/>
  <circle cx="169.28" cy="197.47" r="29.12"/>
  <circle cx="345.9" cy="197.47" r="29.12"/>
  <path d="M99.46,171l-3.63-1.7a130.09,130.09,0,0,1,21.26-30.34c18.54-19.8,40.42-29.85,63.3-29l-.14,4C127.68,112.05,99.73,170.37,99.46,171Z" transform="translate(-2.58 -1.77)"/>
  <path d="M419.51,168c-17-49.76-81.49-55.1-82.14-55.15l.3-4a130.26,130.26,0,0,1,35.93,9.05c25.09,10.27,42.28,27.14,49.69,48.79Z" transform="translate(-2.58 -1.77)"/>
  <path d="M262.05,444.11c-50.07,0-90.81-35.68-90.81-79.53S212,285,262.05,285s90.81,35.68,90.81,79.54S312.12,444.11,262.05,444.11Zm0-154.07c-47.32,0-85.81,33.44-85.81,74.54s38.49,74.53,85.81,74.53,85.81-33.43,85.81-74.53S309.36,290,262.05,290Z" transform="translate(-2.58 -1.77)"/>
</svg>
